<svg xmlns="http://www.w3.org/2000/svg" version="1.1" xmlns:xlink="http://www.w3.org/1999/xlink" xmlns:svgjs="http://svgjs.dev/svgjs" width="100%" height="100%" viewBox="0 0 1000 600"><rect width="1000" height="600" x="0" y="0" fill="#73a9ad"/><g><circle r="166.66666666666666" cx="408.9679819742838" cy="431.1901998417675" fill="#fcedda" transform="matrix(0.5158866036911082,0,0,0.5158866036911082,0,77.55475225874032)"/><path d="M415.45438372617303 506.19020977548814L362.4697484044049 506.19020977548814Q357.80071751715485 506.19020977548814 355.34799875992854 503.73749101826184Q352.89528000270224 501.2847722610355 352.89528000270224 496.61574137378545L352.89528000270224 496.61574137378545L352.89528000270224 365.76467321718235Q352.89528000270224 361.0956423299323 355.34799875992854 358.642923572706Q357.80071751715485 356.1902048154797 362.4697484044049 356.1902048154797L362.4697484044049 356.1902048154797L412.91301248374583 356.1902048154797Q428.42719739391214 356.1902048154797 439.18369893162753 360.77058321752884Q449.94020046934287 365.35096161957796 455.6730611790043 374.06845599767144Q461.4059218886658 382.7859503757649 461.4059218886658 395.34505244589957L461.4059218886658 395.34505244589957Q461.4059218886658 409.3816959360501 453.220342421778 418.7493085389505Q445.03476295489025 428.116921141851 430.9981194647397 431.07200398188263L430.9981194647397 431.07200398188263L430.9981194647397 428.116921141851Q446.95556680091084 430.00817415947125 455.9981202914078 439.5826425611739Q465.0406737819048 449.1571109628766 465.0406737819048 464.9077025002455L465.0406737819048 464.9077025002455Q465.0406737819048 484.91361332726 452.0678601141657 495.5519115513741Q439.06549561802626 506.19020977548814 415.45438372617303 506.19020977548814L415.45438372617303 506.19020977548814ZM369.91655716128474 437.2481271175489L369.91655716128474 492.15356628533766L413.769986507355 492.15356628533766Q430.7912636659375 492.15356628533766 439.30190224522875 485.32732492486446Q447.81254082452006 478.53063439279157 447.81254082452006 464.70084670144325L447.81254082452006 464.70084670144325Q447.81254082452006 450.6642032112927 439.30190224522875 443.9561651644208Q430.7912636659375 437.2481271175489 413.769986507355 437.2481271175489L413.769986507355 437.2481271175489L369.91655716128474 437.2481271175489ZM369.91655716128474 370.22684830563026L369.91655716128474 423.21148362739837L410.34209041291825 423.21148362739837Q426.9496559738963 423.21148362739837 435.57849786678884 416.4147930953255Q444.17778893128104 409.58855173485233 444.17778893128104 396.8225938659154L444.17778893128104 396.8225938659154Q444.17778893128104 383.6429243993741 435.57849786678884 376.9348863525022Q426.9496559738963 370.22684830563026 410.34209041291825 370.22684830563026L410.34209041291825 370.22684830563026L369.91655716128474 370.22684830563026Z " fill="#73a9ad" transform="matrix(0.5158866036911082,0,0,0.5158866036911082,0,77.55475225874032)"/><path d="M720.1411612408358 504.31195454203726L668.3303346581793 504.31195454203726Q663.7647403469357 504.31195454203726 661.3663585252064 501.913572720308Q658.9679767034772 499.5151908985788 658.9679767034772 494.94959658733524L658.9679767034772 494.94959658733524L658.9679767034772 366.9973712064075Q658.9679767034772 362.4317768951639 661.3663585252064 360.0333950734347Q663.7647403469357 357.63501325170546 668.3303346581793 357.63501325170546L668.3303346581793 357.63501325170546L717.656090919526 357.63501325170546Q732.8265783461266 357.63501325170546 743.3447829619029 362.1139190633685Q753.8629875776793 366.59282487503145 759.4688438838898 375.1171940004546Q765.0747001901002 383.6415631258777 765.0747001901002 395.92243389979245L765.0747001901002 395.92243389979245Q765.0747001901002 409.64811300005005 757.0704620621605 418.8081977890641Q749.0662239342208 427.9682825780781 735.3405448339631 430.8578992307639L735.3405448339631 430.8578992307639L735.3405448339631 427.9682825780781Q750.9444747584666 429.817637235797 759.7867017156852 439.1799951904991Q768.6289286729038 448.5423531452011 768.6289286729038 463.94400990401647L768.6289286729038 463.94400990401647Q768.6289286729038 483.5067146426994 755.9435115676131 493.90933459236834Q743.2291982957954 504.31195454203726 720.1411612408358 504.31195454203726L720.1411612408358 504.31195454203726ZM675.6121686229475 436.89719803487725L675.6121686229475 490.58627544177966L718.494079748805 490.58627544177966Q735.1382716682751 490.58627544177966 743.4603676280103 483.91126097407545Q751.7824635877455 477.26514267289804 751.7824635877455 463.7417367383285L751.7824635877455 463.7417367383285Q751.7824635877455 450.01605763807083 743.4603676280103 443.45662783647407Q735.1382716682751 436.89719803487725 718.494079748805 436.89719803487725L718.494079748805 436.89719803487725L675.6121686229475 436.89719803487725ZM675.6121686229475 371.36069235196305L675.6121686229475 423.17151893461966L715.1421244316894 423.17151893461966Q731.3817700197837 423.17151893461966 739.8194506456261 416.5254006334423Q748.2282351049419 409.8503861657381 748.2282351049419 397.3672422261354L748.2282351049419 397.3672422261354Q748.2282351049419 384.47955195515664 739.8194506456261 377.9201221535599Q731.3817700197837 371.36069235196305 715.1421244316894 371.36069235196305L715.1421244316894 371.36069235196305L675.6121686229475 371.36069235196305ZM839.3667443306524 506.19020536628307L839.3667443306524 506.19020536628307Q824.600803235428 506.19020536628307 813.7647407878562 499.7463602307937Q802.9575745068112 493.27361892877747 797.0338603688053 481.5417753188731Q791.0812500642726 469.7810355424418 791.0812500642726 453.74366312003554L791.0812500642726 453.74366312003554Q791.0812500642726 441.6939616783357 794.433205381388 432.01374589183825Q797.7562645319767 422.33353010534074 804.2001096674662 415.4851386384754Q810.6439548029555 408.60785100508315 819.4861817601741 404.96693402269904Q828.3284087173927 401.3260170403149 839.3667443306524 401.3260170403149L839.3667443306524 401.3260170403149Q854.1326854258768 401.3260170403149 864.9398517069219 407.7698621758043Q875.7759141544936 414.21370731129366 881.6996282924997 425.9744470877249Q887.6233424305055 437.73518686415616 887.6233424305055 453.74366312003554L887.6233424305055 453.74366312003554Q887.6233424305055 465.8222607282622 884.3002832799168 475.3868918486523Q880.9772241293281 484.95152296904234 874.5333789938388 491.944395268542Q868.0606376918226 498.9083714015148 859.218410734604 502.5492883838989Q850.3761837773854 506.19020536628307 839.3667443306524 506.19020536628307ZM839.3667443306524 492.66679943171346L839.3667443306524 492.66679943171346Q848.7291022853544 492.66679943171346 855.8086630844348 488.072308953943Q862.8593277169882 483.5067146426994 866.7314140315871 474.7800723515883Q870.5746041796592 466.02453389395026 870.5746041796592 453.74366312003554L870.5746041796592 453.74366312003554Q870.5746041796592 434.8166740449435 862.1369235538166 424.8474965931774Q853.7281390945009 414.84942297488453 839.3667443306524 414.84942297488453L839.3667443306524 414.84942297488453Q829.8021132102624 414.84942297488453 822.8092409107628 419.32832878654756Q815.8452647777899 423.8072345982105 812.0020746297178 432.4182922232143Q808.1588844816456 441.05824601474484 808.1588844816456 453.74366312003554L808.1588844816456 453.74366312003554Q808.1588844816456 472.46837902943963 816.6832536070688 482.58203731384Q825.2076227324919 492.66679943171346 839.3667443306524 492.66679943171346ZM955.0380989376656 506.19020536628307L955.0380989376656 506.19020536628307Q940.272157842441 506.19020536628307 929.4360953948692 499.7463602307937Q918.6289291138244 493.27361892877747 912.7052149758183 481.5417753188731Q906.7815008378125 469.7810355424418 906.7815008378125 453.74366312003554L906.7815008378125 453.74366312003554Q906.7815008378125 441.6939616783357 910.1045599884012 432.01374589183825Q913.4276191389897 422.33353010534074 919.8714642744792 415.4851386384754Q926.3153094099687 408.60785100508315 935.157536367187 404.96693402269904Q943.9997633244056 401.3260170403149 955.0380989376656 401.3260170403149L955.0380989376656 401.3260170403149Q969.80404003289 401.3260170403149 980.6401024804618 407.7698621758043Q991.4472687615068 414.21370731129366 997.3709828995127 425.9744470877249Q1003.2946970375185 437.73518686415616 1003.2946970375185 453.74366312003554L1003.2946970375185 453.74366312003554Q1003.2946970375185 465.8222607282622 999.97163788693 475.3868918486523Q996.6485787363413 484.95152296904234 990.2047336008518 491.944395268542Q983.7608884653625 498.9083714015148 974.9186615081439 502.5492883838989Q966.0764345509253 506.19020536628307 955.0380989376656 506.19020536628307ZM955.0380989376656 492.66679943171346L955.0380989376656 492.66679943171346Q964.4004568923676 492.66679943171346 971.4800176914478 488.072308953943Q978.5595784905281 483.5067146426994 982.4027686386003 474.7800723515883Q986.2459587866722 466.02453389395026 986.2459587866722 453.74366312003554L986.2459587866722 453.74366312003554Q986.2459587866722 434.8166740449435 977.8082781608298 424.8474965931774Q969.3994937015141 414.84942297488453 955.0380989376656 414.84942297488453L955.0380989376656 414.84942297488453Q945.4734678172754 414.84942297488453 938.5094916843027 419.32832878654756Q931.5166193848031 423.8072345982105 927.673429236731 432.4182922232143Q923.8302390886588 441.05824601474484 923.8302390886588 453.74366312003554L923.8302390886588 453.74366312003554Q923.8302390886588 472.46837902943963 932.354608214082 482.58203731384Q940.8789773395051 492.66679943171346 955.0380989376656 492.66679943171346ZM1037.016523374362 505.7567628683802L1037.016523374362 505.7567628683802Q1032.8554753944945 505.7567628683802 1030.7749514045606 503.4739657127584Q1028.694427414627 501.1911685571366 1028.694427414627 497.03012057726903L1028.694427414627 497.03012057726903L1028.694427414627 364.7145740507857Q1028.694427414627 360.5535260709181 1030.7749514045606 358.35741741487686Q1032.8554753944945 356.19020492536254 1037.016523374362 356.19020492536254L1037.016523374362 356.19020492536254Q1040.9752981885415 356.19020492536254 1043.2580953441634 358.35741741487686Q1045.540892499785 360.5535260709181 1045.540892499785 364.7145740507857L1045.540892499785 364.7145740507857L1045.540892499785 448.1378068138251L1045.9454388311613 448.1378068138251L1088.5961806248038 407.36531584442827Q1091.5146934440163 404.6490761909036 1093.7108021000577 403.2042678645607Q1095.878014589572 401.73056337169095 1099.6345162380635 401.73056337169095L1099.6345162380635 401.73056337169095Q1102.9575753886522 401.73056337169095 1104.8358262128982 403.5221256963561Q1106.7140770371439 405.2847918544945 1106.5984923710364 407.88544684191174Q1106.5118038714556 410.48610182932896 1103.997837383619 413.4046146485416L1103.997837383619 413.4046146485416L1058.659752102979 456.4599027735602L1058.659752102979 447.29981798454617L1107.9566121977987 493.7070614266803Q1110.8751250170114 496.62557424589306 1110.8751250170114 499.3129177328908Q1110.8751250170114 502.0291573864155 1108.8812895266583 503.9074082106613Q1106.9163502028318 505.7567628683802 1103.795564217931 505.7567628683802L1103.795564217931 505.7567628683802Q1100.0390625694397 505.7567628683802 1097.7562654138178 504.1963698759298Q1095.473468258196 502.6359768834795 1092.1504091076074 499.5151908985788L1092.1504091076074 499.5151908985788L1045.9454388311613 456.8644491049362L1045.540892499785 456.8644491049362L1045.540892499785 497.03012057726903Q1045.540892499785 505.7567628683802 1037.016523374362 505.7567628683802ZM1163.4950442624202 506.19020536628307L1163.4950442624202 506.19020536628307Q1153.092424312751 506.19020536628307 1144.8859130191233 502.115845885996Q1136.6794017254958 498.0703825722359 1131.8826380820371 490.99082177315563Q1127.0858744385787 483.91126097407545 1127.0858744385787 475.1846186829643L1127.0858744385787 475.1846186829643Q1127.0858744385787 463.94400990401647 1132.8073154108968 457.5001647685271Q1138.5287563832146 451.05631963303773 1151.7632006525157 448.3400799795131Q1164.9687487552897 445.65273649251526 1187.8545126445613 445.65273649251526L1187.8545126445613 445.65273649251526L1197.2168705992633 445.65273649251526L1197.2168705992633 456.66217593924824L1188.0567858102495 456.66217593924824Q1171.2103207250912 456.66217593924824 1161.5301049385937 458.22256893169856Q1151.8498891520962 459.78296192414894 1148.006699004024 463.53946357264044Q1144.163508855952 467.26706905460514 1144.163508855952 474.1443566879974L1144.163508855952 474.1443566879974Q1144.163508855952 482.66872581342056 1150.0872229939578 488.072308953943Q1156.0109371319638 493.5047882609923 1166.2112839159447 493.5047882609923L1166.2112839159447 493.5047882609923Q1174.5333798756799 493.5047882609923 1180.8905365115886 489.54601344681276Q1187.2187969809704 485.5872386326332 1190.8597139633546 478.70995099924096Q1194.5006309457387 471.86155953237557 1194.5006309457387 462.90374790904957L1194.5006309457387 462.90374790904957L1194.5006309457387 439.1799951904991Q1194.5006309457387 426.29230491952035 1189.2993209709043 420.57086394720244Q1184.09801099607 414.84942297488453 1172.250582720058 414.84942297488453L1172.250582720058 414.84942297488453Q1164.9687487552897 414.84942297488453 1157.6869147905215 416.7276737991303Q1150.4050808257534 418.6059246233761 1142.2852580317062 422.76697260324363L1142.2852580317062 422.76697260324363Q1139.3667452124935 424.21178092958655 1137.2862212225596 423.69164993210313Q1135.2056972326259 423.17151893461966 1133.963162071971 421.4955412760619Q1132.7206269113162 419.848459784031 1132.518353745628 417.6523511279898Q1132.2871844134133 415.4851386384754 1133.4430310744876 413.4046146485416Q1134.598877735562 411.3240906586078 1137.0839480568716 410.05265933142607L1137.0839480568716 410.05265933142607Q1146.2440328458856 405.4870650201825 1155.172948302685 403.4065410302487Q1164.130759926011 401.3260170403149 1172.250582720058 401.3260170403149L1172.250582720058 401.3260170403149Q1185.3405461567247 401.3260170403149 1193.8938114486748 405.6026496862899Q1202.418180574098 409.8503861657381 1206.5792285539655 418.49033995726865Q1210.7402765338331 427.1302937487992 1210.7402765338331 440.6536996833688L1210.7402765338331 440.6536996833688L1210.7402765338331 497.03012057726903Q1210.7402765338331 501.1911685571366 1208.7464410434798 503.4739657127584Q1206.7815017196533 505.7567628683802 1203.025000071162 505.7567628683802L1203.025000071162 505.7567628683802Q1199.0951214235092 505.7567628683802 1197.0145974335753 503.4739657127584Q1194.9340734436416 501.1911685571366 1194.9340734436416 497.03012057726903L1194.9340734436416 497.03012057726903L1194.9340734436416 480.79047498917475L1196.7834281013606 480.79047498917475Q1195.1363466093296 488.70802461753385 1190.4551676319786 494.31388092374436Q1185.7739886546276 499.9486333964817 1178.8967010212355 503.0694193813824Q1172.04830955437 506.19020536628307 1163.4950442624202 506.19020536628307ZM1305.4041180758202 504.31195454203726L1253.5932914931636 504.31195454203726Q1249.02769718192 504.31195454203726 1246.6293153601907 501.913572720308Q1244.2309335384616 499.5151908985788 1244.2309335384616 494.94959658733524L1244.2309335384616 494.94959658733524L1244.2309335384616 366.9973712064075Q1244.2309335384616 362.4317768951639 1246.6293153601907 360.0333950734347Q1249.02769718192 357.63501325170546 1253.5932914931636 357.63501325170546L1253.5932914931636 357.63501325170546L1302.8901515879836 357.63501325170546Q1318.0895351811112 357.63501325170546 1328.6077397968872 362.1139190633685Q1339.0970482461369 366.59282487503145 1344.7318007188742 375.1171940004546Q1350.3376570250846 383.6415631258777 1350.3376570250846 395.92243389979245L1350.3376570250846 395.92243389979245Q1350.3376570250846 409.64811300005005 1342.333418897145 418.8081977890641Q1334.329180769205 427.9682825780781 1320.5746055024208 430.8578992307639L1320.5746055024208 430.8578992307639L1320.5746055024208 427.9682825780781Q1336.1785354269243 429.817637235797 1345.0207623841427 439.1799951904991Q1353.8629893413615 448.5423531452011 1353.8629893413615 463.94400990401647L1353.8629893413615 463.94400990401647Q1353.8629893413615 483.5067146426994 1341.1775722360705 493.90933459236834Q1328.49215513078 504.31195454203726 1305.4041180758202 504.31195454203726L1305.4041180758202 504.31195454203726ZM1260.875125457932 436.89719803487725L1260.875125457932 490.58627544177966L1303.7281404172625 490.58627544177966Q1320.3723323367328 490.58627544177966 1328.694428296468 483.91126097407545Q1337.0165242562032 477.26514267289804 1337.0165242562032 463.7417367383285L1337.0165242562032 463.7417367383285Q1337.0165242562032 450.01605763807083 1328.694428296468 443.45662783647407Q1320.3723323367328 436.89719803487725 1303.7281404172625 436.89719803487725L1303.7281404172625 436.89719803487725L1260.875125457932 436.89719803487725ZM1260.875125457932 371.36069235196305L1260.875125457932 423.17151893461966L1300.405081266674 423.17151893461966Q1316.6447268547681 423.17151893461966 1325.0535113140838 416.5254006334423Q1333.4911919399262 409.8503861657381 1333.4911919399262 397.3672422261354L1333.4911919399262 397.3672422261354Q1333.4911919399262 384.47955195515664 1325.0535113140838 377.9201221535599Q1316.6447268547681 371.36069235196305 1300.405081266674 371.36069235196305L1300.405081266674 371.36069235196305L1260.875125457932 371.36069235196305ZM1424.60080499911 506.19020536628307L1424.60080499911 506.19020536628307Q1409.8348639038857 506.19020536628307 1399.0276976228406 499.7463602307937Q1388.1916351752686 493.27361892877747 1382.2679210372628 481.5417753188731Q1376.344206899257 469.7810355424418 1376.344206899257 453.74366312003554L1376.344206899257 453.74366312003554Q1376.344206899257 441.6939616783357 1379.6672660498455 432.01374589183825Q1382.9903252004344 422.33353010534074 1389.4630665024506 415.4851386384754Q1395.9069116379399 408.60785100508315 1404.7491385951587 404.96693402269904Q1413.591365552377 401.3260170403149 1424.60080499911 401.3260170403149L1424.60080499911 401.3260170403149Q1439.3956422608615 401.3260170403149 1450.2028085419063 407.7698621758043Q1461.009974822951 414.21370731129366 1466.9625851274839 425.9744470877249Q1472.88629926549 437.73518686415616 1472.88629926549 453.74366312003554L1472.88629926549 453.74366312003554Q1472.88629926549 465.8222607282622 1469.5632401149012 475.3868918486523Q1466.2112847977858 484.95152296904234 1459.7674396622963 491.944395268542Q1453.3235945268073 498.9083714015148 1444.4813675695884 502.5492883838989Q1435.6391406123698 506.19020536628307 1424.60080499911 506.19020536628307ZM1424.60080499911 492.66679943171346L1424.60080499911 492.66679943171346Q1433.963162953812 492.66679943171346 1441.0427237528922 488.072308953943Q1448.1222845519726 483.5067146426994 1451.9654747000448 474.7800723515883Q1455.808664848117 466.02453389395026 1455.808664848117 453.74366312003554L1455.808664848117 453.74366312003554Q1455.808664848117 434.8166740449435 1447.399880388801 424.8474965931774Q1438.9621997629586 414.84942297488453 1424.60080499911 414.84942297488453L1424.60080499911 414.84942297488453Q1415.03617387872 414.84942297488453 1408.0721977457472 419.32832878654756Q1401.1082216127743 423.8072345982105 1397.2650314647021 432.4182922232143Q1393.3929451501033 441.05824601474484 1393.3929451501033 453.74366312003554L1393.3929451501033 453.74366312003554Q1393.3929451501033 472.46837902943963 1401.9462104420534 482.58203731384Q1410.4705795674765 492.66679943171346 1424.60080499911 492.66679943171346ZM1540.3010557726498 506.19020536628307L1540.3010557726498 506.19020536628307Q1525.5062185108984 506.19020536628307 1514.6990522298536 499.7463602307937Q1503.8918859488087 493.27361892877747 1497.939275644276 481.5417753188731Q1492.01556150627 469.7810355424418 1492.01556150627 453.74366312003554L1492.01556150627 453.74366312003554Q1492.01556150627 441.6939616783357 1495.3386206568587 432.01374589183825Q1498.690575973974 422.33353010534074 1505.1344211094636 415.4851386384754Q1511.578266244953 408.60785100508315 1520.4204932021714 404.96693402269904Q1529.2627201593903 401.3260170403149 1540.3010557726498 401.3260170403149L1540.3010557726498 401.3260170403149Q1555.0669968678744 401.3260170403149 1565.8741631489195 407.7698621758043Q1576.7102255964912 414.21370731129366 1582.633939734497 425.9744470877249Q1588.557653872503 437.73518686415616 1588.557653872503 453.74366312003554L1588.557653872503 453.74366312003554Q1588.557653872503 465.8222607282622 1585.2345947219144 475.3868918486523Q1581.9115355713259 484.95152296904234 1575.4387942693095 491.944395268542Q1568.99494913382 498.9083714015148 1560.1527221766014 502.5492883838989Q1551.3104952193828 506.19020536628307 1540.3010557726498 506.19020536628307ZM1540.3010557726498 492.66679943171346L1540.3010557726498 492.66679943171346Q1549.663413727352 492.66679943171346 1556.7140783599054 488.072308953943Q1563.7936391589856 483.5067146426994 1567.6368293070577 474.7800723515883Q1571.5089156216566 466.02453389395026 1571.5089156216566 453.74366312003554L1571.5089156216566 453.74366312003554Q1571.5089156216566 434.8166740449435 1563.0712349958142 424.8474965931774Q1554.6335543699715 414.84942297488453 1540.3010557726498 414.84942297488453L1540.3010557726498 414.84942297488453Q1530.707528485733 414.84942297488453 1523.7435523527602 419.32832878654756Q1516.7795762197873 423.8072345982105 1512.9363860717153 432.4182922232143Q1509.0931959236432 441.05824601474484 1509.0931959236432 453.74366312003554L1509.0931959236432 453.74366312003554Q1509.0931959236432 472.46837902943963 1517.6175650490663 482.58203731384Q1526.1419341744895 492.66679943171346 1540.3010557726498 492.66679943171346ZM1622.2505840428196 505.7567628683802L1622.2505840428196 505.7567628683802Q1618.089536062952 505.7567628683802 1616.009012073018 503.4739657127584Q1613.9284880830844 501.1911685571366 1613.9284880830844 497.03012057726903L1613.9284880830844 497.03012057726903L1613.9284880830844 364.7145740507857Q1613.9284880830844 360.5535260709181 1616.009012073018 358.35741741487686Q1618.089536062952 356.19020492536254 1622.2505840428196 356.19020492536254L1622.2505840428196 356.19020492536254Q1626.209358856999 356.19020492536254 1628.4921560126209 358.35741741487686Q1630.8038493347697 360.5535260709181 1630.8038493347697 364.7145740507857L1630.8038493347697 364.7145740507857L1630.8038493347697 448.1378068138251L1631.2083956661456 448.1378068138251L1673.8591374597884 407.36531584442827Q1676.777650279001 404.6490761909036 1678.944862768515 403.2042678645607Q1681.1409714245563 401.73056337169095 1684.897473073048 401.73056337169095L1684.897473073048 401.73056337169095Q1688.2205322236366 401.73056337169095 1690.0987830478823 403.5221256963561Q1691.9481377056015 405.2847918544945 1691.8614492060208 407.88544684191174Q1691.7458645399136 410.48610182932896 1689.2607942186035 413.4046146485416L1689.2607942186035 413.4046146485416L1643.8938127714364 456.4599027735602L1643.8938127714364 447.29981798454617L1693.2195690327833 493.7070614266803Q1696.109185685469 496.62557424589306 1696.109185685469 499.3129177328908Q1696.109185685469 502.0291573864155 1694.1442463616424 503.9074082106613Q1692.179307037816 505.7567628683802 1689.0585210529155 505.7567628683802L1689.0585210529155 505.7567628683802Q1685.302019404424 505.7567628683802 1683.019222248802 504.1963698759298Q1680.7364250931803 502.6359768834795 1677.3844697760649 499.5151908985788L1677.3844697760649 499.5151908985788L1631.2083956661456 456.8644491049362L1630.8038493347697 456.8644491049362L1630.8038493347697 497.03012057726903Q1630.8038493347697 505.7567628683802 1622.2505840428196 505.7567628683802Z " fill="#fcedda" transform="matrix(0.5158866036911082,0,0,0.5158866036911082,0,77.55475225874032)"/></g></svg>